<svg width="16" height="16" viewBox="0 0 16 16" fill="none" xmlns="http://www.w3.org/2000/svg">
<path d="M8.74057 6.45486L14.0457 1.14286H10.2857V3.36074e-07H16V5.71429H14.8571V1.95429L9.54514 7.26057L8.74057 6.456V6.45486ZM12.5177 9.384C12.9893 9.38401 13.4419 9.57005 13.7771 9.90171C13.9029 10.0274 14.0423 10.1577 14.1966 10.2949L14.688 10.7326C14.8594 10.8869 15.0206 11.048 15.1691 11.2137C15.3177 11.3806 15.4583 11.5509 15.5897 11.7234C15.72 11.8949 15.8183 12.08 15.8834 12.2766C15.9497 12.4731 15.9886 12.6697 16 12.8663C15.9996 13.3375 15.8136 13.7895 15.4823 14.1246C15.1783 14.4286 14.9051 14.696 14.6606 14.9291C14.429 15.1514 14.1746 15.3487 13.9017 15.5177C13.6389 15.6777 13.3451 15.7977 13.0183 15.8754C12.6399 15.9584 12.2537 16.0002 11.8663 16C11.1885 15.9955 10.5148 15.8931 9.86629 15.696C9.15843 15.4844 8.4732 15.2034 7.82057 14.8571C7.12306 14.4876 6.45752 14.0606 5.83086 13.5806C5.18058 13.0855 4.56574 12.5455 3.99086 11.9646C3.41371 11.3817 2.87771 10.7646 2.384 10.1166C1.90654 9.49405 1.48509 8.83051 1.12457 8.13371C0.789263 7.48498 0.514573 6.80667 0.304 6.10743C0.107855 5.4708 0.00544787 4.809 0 4.14286C0 3.69029 0.0388571 3.304 0.116571 2.98171C0.188626 2.67332 0.308968 2.37825 0.473143 2.10743C0.633143 1.84457 0.830857 1.59314 1.06286 1.34857C1.29486 1.104 1.56571 0.827429 1.87429 0.517715C2.20983 0.185769 2.66286 -0.000288622 3.13486 3.36074e-07C3.432 3.36074e-07 3.71771 0.0800004 3.992 0.24C4.26629 0.402286 4.53143 0.597715 4.78743 0.830857C5.04229 1.06286 5.27886 1.30629 5.49257 1.56229C5.70629 1.81829 5.90857 2.03886 6.09829 2.22286C6.42995 2.55812 6.61599 3.01069 6.616 3.48229C6.62009 3.69621 6.58123 3.90879 6.50171 4.10743C6.42936 4.28352 6.33323 4.44886 6.216 4.59886C6.10167 4.74248 5.97593 4.87663 5.84 5C5.70286 5.12571 5.57829 5.24457 5.46514 5.35771C5.36013 5.46161 5.26165 5.57192 5.17029 5.688C5.08931 5.78864 5.04822 5.91557 5.05486 6.04457C5.05486 6.11657 5.10857 6.22971 5.21486 6.384C5.35285 6.57697 5.50206 6.76167 5.66171 6.93714C6.10557 7.43585 6.5672 7.91845 7.04571 8.384C7.31314 8.64686 7.57257 8.89829 7.82286 9.14286C8.072 9.38743 8.31429 9.61943 8.54629 9.84C8.77829 10.0594 8.97486 10.2469 9.13486 10.4023C9.29486 10.5566 9.42057 10.6766 9.50971 10.7589C9.61152 10.8644 9.74794 10.9298 9.89402 10.943C10.0401 10.9563 10.186 10.9164 10.3051 10.8309C10.4114 10.7531 10.5223 10.6571 10.6354 10.5451C10.7486 10.4309 10.864 10.3063 10.9829 10.1691C11.1017 10.032 11.2389 9.90743 11.3943 9.79428C11.5486 9.68114 11.712 9.58286 11.8857 9.49943C12.0847 9.41169 12.3017 9.37215 12.5189 9.384H12.5177ZM11.8663 14.8571C12.2297 14.8571 12.5326 14.824 12.7771 14.7589C13.0158 14.6957 13.2422 14.593 13.4469 14.4549C13.6491 14.3177 13.8389 14.1577 14.0183 13.9737C14.1966 13.7886 14.4137 13.5714 14.6697 13.3223C14.7954 13.1966 14.8571 13.048 14.8571 12.8754C14.8571 12.7977 14.8091 12.688 14.7143 12.544C14.602 12.3786 14.4826 12.2181 14.3566 12.0629C14.2043 11.8736 14.0402 11.6942 13.8651 11.5257C13.6823 11.3486 13.5029 11.184 13.3303 11.0354C13.1801 10.9041 13.0221 10.782 12.8571 10.6697C12.7143 10.5749 12.6011 10.5269 12.5177 10.5269C12.3898 10.5278 12.2653 10.5681 12.1611 10.6423C12.0408 10.7255 11.9297 10.8213 11.8297 10.928C11.7234 11.0423 11.6069 11.1669 11.4823 11.304C11.3566 11.4411 11.2194 11.5657 11.0709 11.6789C10.9223 11.792 10.7589 11.8903 10.5794 11.9737C10.3832 12.0601 10.1696 12.0996 9.95543 12.0891C9.72095 12.0906 9.48858 12.0448 9.27219 11.9545C9.05581 11.8642 8.85984 11.7312 8.696 11.5634L4.43771 7.30286C4.27327 7.13958 4.14277 6.94537 4.05371 6.73143C3.96354 6.51303 3.91509 6.27967 3.91086 6.04343C3.91086 5.81143 3.94971 5.60571 4.02629 5.42743C4.104 5.24914 4.19886 5.08229 4.312 4.92686C4.42629 4.77257 4.55086 4.63886 4.688 4.52571C4.82514 4.41257 4.94971 4.29371 5.06286 4.168C5.176 4.04343 5.27429 3.93371 5.35771 3.83771C5.44189 3.73883 5.48341 3.6106 5.47314 3.48114C5.47314 3.40343 5.42514 3.29371 5.33029 3.14971C5.21952 2.98643 5.10051 2.82889 4.97371 2.67771C4.81837 2.49147 4.65438 2.3126 4.48229 2.14171C4.3114 1.96962 4.13254 1.80563 3.94629 1.65029C3.7913 1.52094 3.63037 1.3989 3.464 1.28457C3.31543 1.18286 3.20571 1.136 3.13371 1.14171C3.04912 1.14023 2.96511 1.1561 2.88688 1.18834C2.80865 1.22057 2.73785 1.26849 2.67886 1.32914C2.46303 1.54495 2.24589 1.75943 2.02743 1.97257C1.84679 2.14534 1.68511 2.3369 1.54514 2.544C1.40968 2.74895 1.30998 2.9754 1.25029 3.21371C1.17912 3.50901 1.14306 3.81168 1.14286 4.11543C1.14286 4.68686 1.23429 5.27543 1.41943 5.88229C1.61604 6.51875 1.87322 7.1349 2.18743 7.72229C2.51543 8.34057 2.90743 8.94286 3.36571 9.52571C3.824 10.1086 4.31543 10.6651 4.84 11.1943C5.86712 12.2336 7.03974 13.1183 8.32114 13.8206C8.89768 14.1351 9.50508 14.3894 10.1337 14.5794C10.6956 14.7518 11.2787 14.8449 11.8663 14.856V14.8571Z" fill="white"/>
</svg>
