<svg width="149" height="14" viewBox="0 0 149 14" fill="none" xmlns="http://www.w3.org/2000/svg">
<g clip-path="url(#clip0_228_1130)">
<path d="M7.90757 2.66351C7.61881 2.14847 7.17575 1.66894 6.656 1.3491C6.02043 0.958455 5.38509 0.816406 4.59544 0.816406C2.51578 0.816406 0.994527 2.04171 0.994527 3.87117C0.994527 4.75922 1.322 5.30978 1.88043 5.80696C2.45796 6.322 3.09355 6.57059 3.59418 6.7839L4.74949 7.28108C5.42354 7.56517 5.92415 7.77849 6.29007 8.09808C6.75225 8.48873 6.92542 8.95061 6.92542 9.48329C6.92542 10.6733 6.09757 11.8278 4.34512 11.8278C3.69043 11.8278 3.05509 11.6858 2.49666 11.1707C2.13074 10.8154 1.82263 10.2827 1.72637 9.6611L0.339844 10.0162C0.513249 10.7267 0.898273 11.5435 1.53386 12.1119C2.41951 12.9111 3.47856 13.071 4.32602 13.071C6.63666 13.071 8.38911 11.6145 8.38911 9.43014C8.38911 8.57764 8.11944 7.88502 7.46475 7.28108C6.92542 6.7839 6.23228 6.46405 5.48134 6.16231L4.24886 5.6649C3.76759 5.46947 3.28605 5.27425 2.90104 4.91891C2.55446 4.61694 2.41951 4.35072 2.41951 3.88882C2.41951 2.7877 3.30542 2.05958 4.57633 2.05958C5.30792 2.05958 5.7701 2.29052 6.02043 2.46808C6.30944 2.68117 6.5982 3.03629 6.77137 3.35613L7.90757 2.66351Z" fill="white"/>
<path d="M21.7714 2.25512V1.01172H14.1074V2.25512H17.2268V12.858H18.6518V2.25512H21.7714Z" fill="white"/>
<path d="M34.8464 1.01172H28.1836V12.858H34.8464V11.6146H29.6087V7.01472H34.6922V5.77154H29.6087V2.25512H34.8464V1.01172Z" fill="white"/>
<path d="M41.9531 1.01172V12.858H46.9212V11.6146H43.3782V8.29479V1.01172H41.9531Z" fill="white"/>
<path d="M53.332 1.01172V12.858H58.3004V11.6146H54.7568V1.01172H53.332Z" fill="white"/>
<path d="M73.3011 12.8559H74.8803L69.1225 0.441406L63.2109 12.8559H64.7899L66.3302 9.51682H71.799L73.3011 12.8559ZM66.8888 8.27364L69.084 3.53169L71.2407 8.27364H66.8888Z" fill="white"/>
<path d="M81.1777 1.01172V12.858H82.6025V7.67204H82.9685L86.8775 12.858H88.6106L84.5281 7.56528C86.4731 7.4411 87.7633 6.10904 87.7633 4.29743C87.7633 3.0364 87.1086 2.13071 86.3576 1.66905C85.3948 1.06511 84.1048 1.01172 83.2381 1.01172H81.1777ZM82.6025 2.25512H83.4693C84.0855 2.25512 84.7401 2.29063 85.3179 2.59237C86.1265 3.01875 86.3385 3.67584 86.3385 4.33295C86.3385 5.71839 85.2794 6.49967 83.5077 6.49967H82.6025V2.25512Z" fill="white"/>
<path d="M105.325 12.857L106.596 4.616L110.909 13.3541L115.28 4.616L116.493 12.857H117.957L115.954 0.335938L110.928 10.3528L105.999 0.353574L103.861 12.857H105.325Z" fill="white"/>
<path d="M132.072 1.01172H125.41V12.858H132.072V11.6146H126.835V7.01472H131.919V6.35555V5.77154H126.835V2.25512H132.072V1.01172Z" fill="white"/>
<path d="M138.912 12.233C138.912 12.233 140.574 12.7604 141.992 12.8212C143.844 12.9008 145.297 12.4661 146.472 11.5425C147.396 10.8144 148.787 9.43309 148.787 6.94653C148.787 4.81533 147.816 3.1922 146.701 2.39281C145.553 1.37038 143.398 0.88922 141.423 1.13247C139.702 1.34462 139.045 1.90725 139.045 1.90725C139.045 1.90725 140.58 1.66167 142.108 1.85897C144.018 2.10569 144.967 2.67414 145.932 3.61324C146.895 4.54908 147.311 5.65301 147.283 6.97531C147.245 8.80477 146.277 9.86413 145.319 10.6319C144.226 11.5074 143.391 11.7992 141.72 12.0747C140.888 12.2119 138.912 12.233 138.912 12.233Z" fill="white"/>
</g>
<defs>
<clipPath id="clip0_228_1130">
<rect width="148.961" height="13.6548" fill="white"/>
</clipPath>
</defs>
</svg>
